<svg height="512pt" viewBox="-16 0 512 512.00038" width="512pt" xmlns="http://www.w3.org/2000/svg"><g fill-rule="evenodd"><path d="m474.933594 119.339844-114.898438-114.949219c-5.824218-5.824219-15.246094-5.855469-21.113281-.09375-13.820313 11.792969-32.476563 27.710937-46.296875 39.503906l137.726562 149 45.367188-53.152343c5.121094-5.984376 4.695312-14.839844-.785156-20.308594zm0 0" fill="#dff3ff"/><path d="m67.164062 375.738281 36.492188 36.753907c5.796875 5.832031 5.804688 15.257812 0 21.09375l-20.996094 21.152343c-2.753906 3.21875-6.84375 5.261719-11.410156 5.261719h-39.601562v-.042969c-3.839844 0-7.683594-1.472656-10.605469-4.410156l-16.691407-16.8125c-5.796874-5.828125-5.804687-15.257813 0-21.09375l41.660157-41.960937c5.859375-5.828126 15.328125-5.800782 21.152343.058593zm0 0" fill="#00da26"/><path d="m193.222656 438.039062 1.445313-1.039062-153-154.832031-2.484375 1.832031c-.679688-.792969 14.816406 16.25 13.773437 30.855469-.875 12.273437-8.886719 25.070312-21.582031 37.765625-5.855469 5.855468-5.855469 15.351562 0 21.210937l74.144531 74.144531c5.855469 5.855469 15.355469 5.855469 21.210938-.003906 11.746093-11.746094 23.832031-19.753906 35.585937-21.375 9.972656-1.371094 20.609375 2.09375 31.769532 12.222656-.289063-.257812-.578126-.53125-.863282-.78125zm0 0" fill="#dff3ff"/></g><path d="m297.457031 39.675781-32.851562 28.035157.011719.007812c-75.289063 64.257812-150.566407 128.53125-225.855469 192.785156-6.277344 5.375-7.011719 14.816406-1.640625 21.09375.691406.8125 1.382812 1.609375 2.0625 2.402344l154.039062 154.039062c1.207032 1.058594 2.414063 2.195313 3.632813 3.410157 5.855469 5.859375 15.355469 5.859375 21.210937 0 .542969-.542969 1.039063-1.121094 1.484375-1.722657 63.070313-73.894531 126.15625-147.773437 189.230469-221.664062l11.347656-13.289062 12.710938-14.890626 6.828125-8zm0 0" fill="#00da26"/><path d="m464.441406 482c8.285156 0 15 6.714844 15 15s-6.714844 15-15 15h-446.941406c-8.28125 0-15-6.714844-15-15s6.71875-15 15-15zm0 0" fill="#00c200"/><path d="m84.894531 393.597656 18.761719 18.894532c5.796875 5.832031 5.804688 15.257812 0 21.09375l-20.996094 21.152343c-2.753906 3.21875-6.84375 5.261719-11.410156 5.261719h-39.601562v-.042969c-3.421876 0-6.839844-1.167969-9.613282-3.496093zm0 0" fill="#00c200" fill-rule="evenodd"/><path d="m464.441406 482c8.285156 0 15 6.714844 15 15h-476.941406c0-8.285156 6.71875-15 15-15zm0 0" fill="#00da26"/><path d="m430.351562 192.800781 45.367188-53.15625c5.121094-5.980469 4.695312-14.835937-.785156-20.304687l-57.878906-57.902344-56.1875 56.191406zm0 0" fill="#c5e7fd" fill-rule="evenodd"/><path d="m105.519531 447.976562c5.855469 5.855469 15.351563 5.855469 21.210938-.003906 11.746093-11.746094 23.832031-19.753906 35.585937-21.375 9.972656-1.371094 20.609375 2.09375 31.769532 12.222656-.289063-.261718-.574219-.53125-.859376-.78125l1.441407-1.039062-76.128907-77.042969-50.519531 50.515625zm0 0" fill="#c5e7fd" fill-rule="evenodd"/><path d="m193.222656 438.039062c1.207032 1.058594 2.417969 2.195313 3.632813 3.414063 5.859375 5.855469 15.355469 5.855469 21.210937 0 .546875-.546875 1.039063-1.125 1.484375-1.726563 63.070313-73.894531 126.15625-147.769531 189.230469-221.664062l.003906.003906 11.34375-13.292968 12.710938-14.890626 6.828125-8-71.527344-71.527343-251.300781 251.300781zm0 0" fill="#00c200" fill-rule="evenodd"/></svg>