<svg height="472pt" viewBox="-12 0 472 472" width="472pt" xmlns="http://www.w3.org/2000/svg"><path d="m136 248h16l152 56h72c8.800781 0 16 7.199219 16 16v40c0 8.800781-7.199219 16-16 16h-72l-152 64h-16c-8.800781 0-16-7.199219-16-16v-160c0-8.800781 7.199219-16 16-16zm0 0" fill="#2ab793"/><path d="m56 8h80c8.800781 0 16 7.199219 16 16v176c0 8.800781-7.199219 16-16 16h-80c-8.800781 0-16-7.199219-16-16v-176c0-8.800781 7.199219-16 16-16zm0 0" fill="#676b7f"/><path d="m56 8h80c8.800781 0 16 7.199219 16 16v16h-112v-16c0-8.800781 7.199219-16 16-16zm0 0" fill="#4a4a56"/><path d="m136 216h-80c-8.800781 0-16-7.199219-16-16v-16h112v16c0 8.800781-7.199219 16-16 16zm0 0" fill="#4a4a56"/><path d="m304 32c-57.601562 0-104 46.398438-104 104h104v104c57.601562 0 104-46.398438 104-104s-46.398438-104-104-104zm0 0" fill="#e23333"/><path d="m368 136c0 35.347656-28.652344 64-64 64s-64-28.652344-64-64 28.652344-64 64-64 64 28.652344 64 64zm0 0" fill="#e9e9e9"/><path d="m80 80 40 32-40 32zm0 0" fill="#2ab793"/><path d="m152 440v-192h-16c-8.800781 0-16 7.199219-16 16v160c0 8.800781 7.199219 16 16 16zm0 0" fill="#239172"/><path d="m336 376v80c0 8.800781 7.199219 16 16 16s16-7.199219 16-16v-80zm0 0" fill="#676b7f"/><g fill="#b4b4b5"><path d="m64 328h32v16h-32zm0 0"/><path d="m66.460938 269.777344 11.3125-11.316406 23.761718 23.761718-11.316406 11.3125zm0 0"/><path d="m66.460938 402.222656 23.757812-23.761718 11.3125 11.316406-23.757812 23.757812zm0 0"/></g><path d="m280 240v-80h-80v.800781c0 44 35.199219 79.199219 80 79.199219zm0 0" fill="#f4a422"/><path d="m176 24h48v16h-48zm0 0" fill="#d6d7d8"/><path d="m424 344h-8v-16h8c4.800781 0 8-3.199219 8-8v-152h16v152c0 13.601562-10.398438 24-24 24zm0 0" fill="#d6d7d8"/><path d="m48 344h-24c-13.601562 0-24-10.398438-24-24v-152h16v152c0 4.800781 3.199219 8 8 8h24zm0 0" fill="#d6d7d8"/><path d="m328 136c0 13.253906-10.746094 24-24 24s-24-10.746094-24-24 10.746094-24 24-24 24 10.746094 24 24zm0 0" fill="#e23333"/><path d="m298.257812 130.425781 96.164063-96.164062 11.316406 11.3125-96.167969 96.167969zm0 0" fill="#d6d7d8"/><path d="m440 48h-48v-48h16v32h32zm0 0" fill="#b4b4b5"/><path d="m304 304h72c8.800781 0 16 7.199219 16 16v40c0 8.800781-7.199219 16-16 16h-72zm0 0" fill="#4a4a56"/></svg>