<svg height="512" viewBox="0 0 64 64" width="512" xmlns="http://www.w3.org/2000/svg"><path d="m6 33h28v22h-28z" fill="#aae1f9"/><path d="m3 55h34a0 0 0 0 1 0 0v2a4 4 0 0 1 -4 4h-26a4 4 0 0 1 -4-4v-2a0 0 0 0 1 0 0z" fill="#f9e109"/><path d="m10 41v-8h-4v22h28v-4h-14a10 10 0 0 1 -10-10z" fill="#57b7eb"/><path d="m9 58a3 3 0 0 1 -3-3h-3v2a4 4 0 0 0 4 4h26a4 4 0 0 0 3.86-3z" fill="#fcbc04"/><rect fill="#c4f236" height="16" rx="2" width="16" x="45" y="34"/><circle cx="53" cy="42" fill="#57b7eb" r="3"/><path d="m48 39v-5h-1a2 2 0 0 0 -2 2v12a2 2 0 0 0 2 2h12a2 2 0 0 0 2-2v-1h-5a8 8 0 0 1 -8-8z" fill="#a1d51c"/><circle cx="54" cy="41" fill="#aae1f9" r="1"/><path d="m3 12h12v16h-12z" fill="#c4f236"/><circle cx="27" cy="10" fill="#f89c8d" r="8"/><path d="m25 13v-6l6 3z" fill="#aae1f9"/><path d="m30 15a8 8 0 0 1 -8-8 7.9 7.9 0 0 1 1.05-3.95 8 8 0 1 0 10.95 10.95 7.9 7.9 0 0 1 -4 1z" fill="#f8664f"/><rect fill="#aae1f9" height="16" rx="2" width="16" x="45" y="3"/><path d="m48 8v-5h-1a2 2 0 0 0 -2 2v12a2 2 0 0 0 2 2h12a2 2 0 0 0 2-2v-1h-5a8 8 0 0 1 -8-8z" fill="#57b7eb"/><path d="m6 19v-7h-3v16h12v-3h-3a6 6 0 0 1 -6-6z" fill="#a1d51c"/><path d="m21.29 41.49h4a0 0 0 0 1 0 0v8a2 2 0 0 1 -2 2 2 2 0 0 1 -2-2v-8a0 0 0 0 1 0 0z" fill="#f8664f" transform="matrix(.866 -.5 .5 .866 -20.12 17.88)"/><path d="m25.06 45.55-2.53-4.39-3.47 2 2.37 4.1 1.73-1z" fill="#cc5144"/><path d="m40.25 37.86-17.09 6.4-5-8.66 14.09-11.6z" fill="#c4f236"/><path d="m16.2 36.93h5a0 0 0 0 1 0 0v10a0 0 0 0 1 0 0h-5a3 3 0 0 1 -3-3v-4a3 3 0 0 1 3-3z" fill="#f89c8d" transform="matrix(.866 -.5 .5 .866 -18.66 14.22)"/><path d="m12 42.93h2a0 0 0 0 1 0 0v4a0 0 0 0 1 0 0h-2a2 2 0 0 1 -2-2 2 2 0 0 1 2-2z" fill="#cc5144" transform="matrix(.866 -.5 .5 .866 -20.86 12.02)"/><path d="m24.32 41.2a2.09 2.09 0 0 0 -.3.14l-1.91 1.1 1.05 1.82 17.09-6.4-1.25-2.16z" fill="#a1d51c"/><path d="m21.56 42.76a5 5 0 0 1 -7.46-4.82l-.27.16a3 3 0 0 0 -1.1 4.1l2 3.46a3 3 0 0 0 4.1 1.1l4.33-2.5-1.05-1.82z" fill="#f8664f"/><path d="m9 61v-2a1 1 0 0 1 2 0v2z" fill="#57b7eb"/><path d="m29 61v-2a1 1 0 0 1 2 0v2z" fill="#57b7eb"/><path d="m56 6h-2a3 3 0 0 0 -3 3v1h-1a1 1 0 0 0 0 2h1v3a1 1 0 0 0 2 0v-3h1a1 1 0 0 0 0-2h-1v-1a1 1 0 0 1 1-1h2a1 1 0 0 0 0-2z" fill="#fcbc04"/><g fill="#f9e109"><path d="m37 23a1 1 0 0 1 -.6-.2 1 1 0 0 1 -.2-1.4l3-4a1 1 0 0 1 1.6 1.2l-3 4a1 1 0 0 1 -.8.4z"/><path d="m40 27a1 1 0 0 1 -.8-.4 1 1 0 0 1 .2-1.4l4-3a1 1 0 1 1 1.2 1.6l-4 3a1 1 0 0 1 -.6.2z"/><path d="m43 31a1 1 0 0 1 -.2-2l5-1a1 1 0 0 1 .4 2l-5 1z"/></g><path d="m11 17h-2a1 1 0 0 1 0-2h2a1 1 0 0 1 0 2z" fill="#fcbc04"/><path d="m11 21h-4a1 1 0 0 1 0-2h4a1 1 0 0 1 0 2z" fill="#fcbc04"/><path d="m11 25h-4a1 1 0 0 1 0-2h4a1 1 0 0 1 0 2z" fill="#fcbc04"/><path d="m52 16a1 1 0 0 0 .92-.62 7.92 7.92 0 0 1 -1.92-1.14v.76a1 1 0 0 0 1 1z" fill="#e59730"/><path d="m7 25h4a1 1 0 0 0 .25-.05 6 6 0 0 1 -3.71-1.95h-.54a1 1 0 0 0 0 2z" fill="#e59730"/></svg>